<svg xmlns="http://www.w3.org/2000/svg" version="1.1" xmlns:xlink="http://www.w3.org/1999/xlink" xmlns:svgjs="http://svgjs.com/svgjs" width="1000" height="1000"><g transform="matrix(3.90625,0,0,3.90625,0.2892458438873291,0.2732813358306885)"><svg xmlns="http://www.w3.org/2000/svg" version="1.1" xmlns:xlink="http://www.w3.org/1999/xlink" xmlns:svgjs="http://svgjs.com/svgjs" width="256" height="256"><svg version="1.1" xmlns="http://www.w3.org/2000/svg" xmlns:xlink="http://www.w3.org/1999/xlink" x="0px" y="0px" viewBox="0 0 256 256" enable-background="new 0 0 256 256" xml:space="preserve">
<metadata> Svg Vector Icons : http://www.onlinewebfonts.com/icon </metadata>
<g><g><g><path fill="#000000" d="M177.1,56.5c-7.5,1.2-15.5,7.5-18.7,14.5c-0.9,2-1.7,3.6-1.7,3.8c-0.1,0.1-2.7-1.2-5.9-2.9c-16.2-8.6-28.3-11.1-46.1-9.9C79,63.7,58.3,71.8,42.4,86.4c-18.7,17.4-30.7,44.4-32.3,73c-1,16.5,3.9,25.9,16.7,31.8c12.3,5.8,26.9,7.6,67.3,8.3l22.3,0.4l1.7-1.4c0.9-0.7,3.3-2.4,5.1-3.6c6.7-4.6,9.6-10.8,8.1-17.9c-1-4.7-4.9-12.5-8.7-17.1c-3.3-4.1-3.8-6.1-2-7.8c2.6-2.4,5.5-0.5,10.7,7.1c4.7,6.9,7.9,15.5,7.9,21.1c0,3.4-1.6,9.3-3.3,11.9c-0.7,1.2-2.4,3.4-3.8,4.9l-2.5,2.6l45.2-0.3c49.6-0.3,51.8-0.5,59.4-4.1c5.2-2.4,7.8-4.9,9.9-9.4c1.7-3.6,1.8-4.4,1.7-11c-0.1-5.8-0.4-8.1-1.7-12.6c-4.2-14-12.1-28.3-21.4-38.7c-1.7-2-3-3.6-2.9-3.6c10.3-6.3,14.4-12.9,14.4-23.5c0-5-0.2-6-2.1-10c-1.6-3.3-3.1-5.4-6-8.1c-5.4-5-9.1-6.5-17.2-6.5c-5.9,0-6.3,0.1-10.8,2.3c-7.4,3.6-12.1,9.5-13.7,17.2c-0.4,2-0.9,3.7-1,3.8c-0.2,0.1-1.2-0.9-2.3-2.2l-2-2.3l1.1-3.4c2.8-8.9,11-16.9,20.1-19.6l2.3-0.7l-2.4-2.8c-3.3-3.7-8.3-6.5-13.4-7.6C182.2,55.7,181.6,55.7,177.1,56.5z M202.8,125.4c4.3,1.2,7.9,5.2,8.7,9.9c0.9,4.9-2.9,11.4-7.5,12.9c-8.3,2.7-16.2-2.6-16.2-11.1c0-5.5,3.4-10.1,8.6-11.6C199.4,124.6,200.1,124.6,202.8,125.4z"></path></g></g></g>
</svg></svg></g></svg>